<svg xmlns="http://www.w3.org/2000/svg" viewBox="0 0 1920 715.18"><defs><style>.cls-1{fill:#fff;}.cls-2{fill:#231f20;}</style></defs><g id="Layer_2" data-name="Layer 2"><g id="Layer_1-2" data-name="Layer 1"><path class="cls-1" d="M112.91,0h1675A132.06,132.06,0,0,1,1920,132.06V583.12a132.06,132.06,0,0,1-132.06,132.06H132.06A132.06,132.06,0,0,1,0,583.12V112.91A112.91,112.91,0,0,1,112.91,0Z"/><path class="cls-2" d="M710,410.67,606,420.69c-26.83,2.78-47.1,24.84-47.1,50.87V530c0,7.35,4.77,12.12,12.52,11.33l31-3c7.75-.79,12.52-6.16,12.52-13.71V493.15l95.38-9.21c7.75-.8,12.52-6.16,12.52-13.71V421.6C722.47,414.45,717.3,410.08,710,410.67Z"/><path class="cls-2" d="M1633.65,274.11,1780.1,260c8.15-.8,12.52-6.16,12.52-13.71V197.8c0-7.35-2.59-12.12-12.52-11.13l-146.45,14.12c-8.34.79-12.51,6.16-12.51,13.71V263C1621.14,270.34,1626.1,274.11,1633.65,274.11Z"/><path class="cls-2" d="M1154.22,247.79l59.61-5.75c7.55-.79,12.52-6.16,12.52-13.71V179.85c0-7.36-4.57-11.93-12.52-11.13l-59.61,5.74c-7.55.8-12.52,6.36-12.52,13.72v48.48C1141.7,244,1146.67,248.58,1154.22,247.79Z"/><path class="cls-2" d="M710.35,178.53l-30,2.89c-7.55.79-12.52,6.16-12.52,13.71V295.45L321.88,328.8c-7.95.79-12.52,6.16-12.52,13.71v48.05c0,7.36,4.77,12.13,12.52,11.33l146.05-14V388c0,63.58-22.65,67.88-142.27,80.2-68.76,7.15-102.73-19.47-102.73-72.93V237.84c0-7.35-5-11.92-12.52-11.13l-30.21,2.91c-7.35.8-12.31,6.16-12.31,13.52l.19,151.78c0,103.12,59.42,155,162.34,144.45,143.47-14.7,193.28-44.27,193.28-156.7v-.1l139.56-13.35c35.76-3.45,59.61-22.26,59.61-50.87V189.66C722.87,182.3,718.1,177.73,710.35,178.53Z"/><path class="cls-2" d="M1780.1,330.34l-29.61,2.85c-10.53,1-12.52,4.9-12.52,13.84V454.19l-129.35,12.47c-28.42,3-43.32-15.81-43.32-44.42V393.33c0-47.1-19.87-67-62-85.64l-178.83-77.63,228.31-21.67c7.35-1.4,12.52-6.16,12.52-13.72V146.39c0-7.35-4.77-11.92-12.52-11.13l-239.24,23.06c-18.48,2-31.19,15.7-31.19,34.38v79.06c0,7.35,5,14.9,11.12,17.48L1491,379.62c12.52,5,19.28,13.71,19.28,22.25,0,33.38-25.83,43.51-131.94,54.64l-117.2,11.29V390.94c0-68.15-40.73-106.63-107.1-99.87L862.15,319.2V216.94l86.6,8.88c39.74,3.77,53.45,7.15,59.81,28.22,1.78,7.55,7.15,11.92,14.9,11.12l33.58-3.57c9.14-1,13.51-6,12.52-13.71-5-55.84-34.58-88.43-109.09-94.59L844.67,141.61c-18.48-2-37.55,16.1-37.55,34.78V343.67c0,31,25.83,51.86,58.81,48.48l162-15.71v.89c0,48.89-8.75,70.3-134.33,83.41l-73.91,7.12c-7.75.8-12.52,6.16-12.52,13.71V530c0,7.35,5.16,11.92,12.52,11.13l74.71-7.29c148.43-15.1,188.57-59.72,188.57-161.85v-.93l76.07-7.38c33-3.18,47.09,22.65,47.09,54.84v69.75c0,29.8,26.43,55.85,58.62,52.47l117.79-11.35c69.75-7.15,113.46-15.09,139.09-42.71,7.36,35.76,38,58.43,82.86,53.66L1738,527.51c36-3.58,55-20.13,55-48.74V341.27C1792.82,332.92,1789.24,329.34,1780.1,330.34Z"/></g></g></svg>