<svg fill="none" height="24" viewBox="0 0 24 24" width="24" xmlns="http://www.w3.org/2000/svg"><g stroke="#2a353d" stroke-width="1.5"><g stroke-linecap="round" stroke-linejoin="round"><path d="m3 7h3"/><path d="m3 17h6"/><path d="m18 17h3"/><path d="m15 7h6"/></g><path d="m6 7c0-.93188 0-1.39782.15224-1.76537.20299-.49005.59234-.8794 1.08239-1.08239.36755-.15224.83349-.15224 1.76537-.15224s1.3978 0 1.7654.15224c.49.20299.8794.59234 1.0824 1.08239.1522.36755.1522.83349.1522 1.76537s0 1.39782-.1522 1.76537c-.203.49005-.5924.8794-1.0824 1.08239-.3676.15224-.83352.15224-1.7654.15224s-1.39782 0-1.76537-.15224c-.49005-.20299-.8794-.59234-1.08239-1.08239-.15224-.36755-.15224-.83349-.15224-1.76537z"/><path d="m12 17c0-.9319 0-1.3978.1522-1.7654.203-.49.5924-.8794 1.0824-1.0824.3676-.1522.8335-.1522 1.7654-.1522s1.3978 0 1.7654.1522c.49.203.8794.5924 1.0824 1.0824.1522.3676.1522.8335.1522 1.7654s0 1.3978-.1522 1.7654c-.203.49-.5924.8794-1.0824 1.0824-.3676.1522-.8335.1522-1.7654.1522s-1.3978 0-1.7654-.1522c-.49-.203-.8794-.5924-1.0824-1.0824-.1522-.3676-.1522-.8335-.1522-1.7654z"/></g></svg>