<svg xmlns:xlink="http://www.w3.org/1999/xlink" xmlns="http://www.w3.org/2000/svg" viewBox="0 0 32 32" width="32"  height="32" ><path d="M21.214 5.179c0 .527-.437.964-.964.964s-.964-.437-.964-.964c0-.759-.116-.926-.116-.939-.077-.026-.527-.026-.849-.026H15.75c-.321 0-.759 0-.874.051.013.013-.09.206-.09.913 0 .527-.437.964-.964.964s-.964-.437-.964-.964c0-2.674 1.311-2.893 2.893-2.893h2.571c1.581 0 2.893.219 2.893 2.893zM20.449 22.497c0 .077-.013.154-.026.231a.972.972 0 0 1-1.17.707 9.602 9.602 0 0 0-4.68 0 .962.962 0 0 1-1.17-.707.958.958 0 0 1 .707-1.157 11.486 11.486 0 0 1 5.606 0 .959.959 0 0 1 .733.926zM20.449 18.229c0 .077-.013.154-.026.231a.972.972 0 0 1-1.17.707 9.602 9.602 0 0 0-4.68 0 .962.962 0 0 1-1.17-.707.962.962 0 0 1 .707-1.17 11.486 11.486 0 0 1 5.606 0 .985.985 0 0 1 .733.939zM20.449 13.773c0 .077-.013.154-.026.231a.972.972 0 0 1-1.17.707 9.602 9.602 0 0 0-4.68 0 .962.962 0 0 1-1.17-.707.962.962 0 0 1 .707-1.17 11.486 11.486 0 0 1 5.606 0 .985.985 0 0 1 .733.939z"/><path d="M26.786 14.393v7.714c0 5.67-1.723 7.393-7.393 7.393H14.25c-5.67 0-7.393-1.723-7.393-7.393v-7.714C6.857 8.723 8.58 7 14.25 7h5.143c5.67 0 7.393 1.723 7.393 7.393zm-18 7.714c0 4.59.874 5.464 5.464 5.464h5.143c4.59 0 5.464-.874 5.464-5.464v-7.714c0-4.59-.874-5.464-5.464-5.464H14.25c-4.59 0-5.464.874-5.464 5.464v7.714z"/></svg>