<svg xmlns:xlink="http://www.w3.org/1999/xlink" xmlns="http://www.w3.org/2000/svg" viewBox="0 0 32 32" width="32"  height="32" ><path d="M19.999 30.331h-8c-5.88 0-7.667-1.787-7.667-7.667V9.331c0-5.88 1.787-7.667 7.667-7.667h8c5.88 0 7.667 1.787 7.667 7.667v13.333c0 5.88-1.787 7.667-7.667 7.667zm-8-26.667c-4.773 0-5.667.907-5.667 5.667v13.333c0 4.76.893 5.667 5.667 5.667h8c4.773 0 5.667-.907 5.667-5.667V9.331c0-4.76-.893-5.667-5.667-5.667h-8zm-.065 8.413a3.067 3.067 0 1 1 0-6.135 3.067 3.067 0 0 1 0 6.135zm0-4.146c-.587 0-1.067.48-1.067 1.067s.48 1.067 1.067 1.067 1.067-.48 1.067-1.067-.48-1.067-1.067-1.067zm-3.067 9.066a3.067 3.067 0 1 0 6.135 0 3.067 3.067 0 0 0-6.135 0zm2-.013c0-.587.48-1.067 1.067-1.067s1.067.48 1.067 1.067-.48 1.067-1.067 1.067-1.067-.48-1.067-1.067z"/></svg>