<svg height="52" viewBox="0 0 52 52" width="52" xmlns="http://www.w3.org/2000/svg"><path d="m39.55 26a10.5 10.5 0 1 0 10.45 10.5 10.5 10.5 0 0 0 -10.45-10.5zm0 16.14a5.65 5.65 0 1 1 5.6-5.64 5.64 5.64 0 0 1 -5.6 5.64zm-16.55-26.64a10.48 10.48 0 1 0 -3.07 7.43 10.5 10.5 0 0 0 3.07-7.43zm-10.5 5.64a5.65 5.65 0 1 1 4-1.65 5.63 5.63 0 0 1 -4.01 1.65zm26.71-15a.8.8 0 0 0 -.72-1.14h-3a.83.83 0 0 0 -.64.4l-22 40.41a.78.78 0 0 0 0 .78.79.79 0 0 0 .68.39h3a.8.8 0 0 0 .64-.4l22-40.41z" fill="#fff"/></svg>