<svg fill="none" height="24" viewBox="0 0 24 24" width="24" xmlns="http://www.w3.org/2000/svg"><g stroke="#292d32" stroke-linecap="round" stroke-linejoin="round" stroke-width="1.5"><path d="m3.5 7v10c0 3 1.47 5 5 5h7c3.47 0 5-2 5-5v-1.17c0-.53-.21-1.04-.59-1.41l-.83-.83c-.38-.38-.59-.88-.59-1.41v-2.18c0-.55.45-1 1-1s1-.45 1-1v-1c0-3-1.53-5-5-5h-7c-3.52 0-4.99 2-4.99 5z"/><path d="m7.98998 21.97-.01-2.97c0-1.11.89-2 2-2h4.01002c1.1 0 1.99.89 2 1.99l.03 2.99"/><path d="m8.93994 4.95006.05-2.89"/><path d="m11.9399 4.95006.05-2.89"/><path d="m14.9399 4.92004.05-2.88"/></g></svg>