<svg xmlns:xlink="http://www.w3.org/1999/xlink" xmlns="http://www.w3.org/2000/svg" viewBox="0 0 32 32" width="32"  height="32" ><path d="M11.999 30.331h8c5.88 0 7.667-1.787 7.667-7.667V9.331c0-5.88-1.787-7.667-7.667-7.667h-8c-5.88 0-7.667 1.787-7.667 7.667v13.333c0 5.88 1.787 7.667 7.667 7.667zm-5.667-21c0-4.76.893-5.667 5.667-5.667h8c4.773 0 5.667.907 5.667 5.667v13.333c0 4.76-.893 5.667-5.667 5.667h-8c-4.773 0-5.667-.907-5.667-5.667V9.331zm15.743 2.296c0 .486.403.889.889.889s.889-.403.889-.889V6.886a.895.895 0 0 0-.889-.889h-4.741c-.486 0-.889.403-.889.889s.403.889.889.889h2.499L10.445 23.372v-3.004c0-.486-.403-.889-.889-.889s-.889.403-.889.889v4.741c0 .486.403.889.889.889h4.741c.486 0 .889-.403.889-.889s-.403-.889-.889-.889h-2.326l10.03-15.222a.824.824 0 0 0 .074-.084v2.714zm0-3.802v-.05h-.042a.654.654 0 0 1 .042.05z"/></svg>